<svg width="20" height="21" viewBox="0 0 20 21" fill="none" xmlns="http://www.w3.org/2000/svg">
<path d="M16.9698 18.3446C19.3867 16.0435 20.4609 12.2084 19.8164 8.5376H10.2026V12.5919H15.6809C15.466 13.9068 14.7141 15.0025 13.6399 15.7148L16.9698 18.3446Z" fill="#4285F4"/>
<path d="M1.07202 15.1121C1.77855 16.5318 2.79181 17.7695 4.03541 18.7316C5.27901 19.6938 6.72051 20.3555 8.25125 20.6667C9.78198 20.978 11.362 20.9307 12.8722 20.5284C14.3824 20.1262 15.7834 19.3795 16.9696 18.3445L13.6397 15.7147C10.7932 17.6323 6.06687 16.9201 4.45563 12.4275L1.07202 15.1121Z" fill="#34A853"/>
<path d="M4.45567 12.4272C4.026 11.0576 4.026 9.79744 4.45567 8.42775L1.07206 5.74316C-0.163222 8.26339 -0.539178 11.8246 1.07206 15.1118L4.45567 12.4272Z" fill="#FBBC02"/>
<path d="M4.45563 8.42789C5.6372 4.64755 10.6858 2.45605 14.0694 5.68851L17.0233 2.72999C12.8341 -1.37907 4.67046 -1.21471 1.07202 5.7433L4.45563 8.42789Z" fill="#EA4335"/>
</svg>
